<?xml version="1.0" encoding="UTF-8" standalone="no"?> <!-- Created with Vectornator Pro for iOS (http://vectornator.io/) --><!DOCTYPE svg PUBLIC "-//W3C//DTD SVG 1.1//EN" "http://www.w3.org/Graphics/SVG/1.1/DTD/svg11.dtd">
<svg height="100%" style="fill-rule:evenodd;clip-rule:evenodd;stroke-linecap:round;stroke-linejoin:round;" xmlns:xlink="http://www.w3.org/1999/xlink" xmlns="http://www.w3.org/2000/svg" xml:space="preserve" width="100%" xmlns:vectornator="http://vectornator.io" version="1.1" viewBox="0 0 1200 1200">
<metadata>
<vectornator:setting key="DisplayWhiteBackground" value="0"/>
<vectornator:setting key="RulersVisible" value="1"/>
<vectornator:setting key="SnapToEdges" value="0"/>
<vectornator:setting key="Units" value="Pixels"/>
<vectornator:setting key="DynamicGuides" value="0"/>
<vectornator:setting key="SnapToPoints" value="0"/>
<vectornator:setting key="CMYKEnabledKey" value="0"/>
<vectornator:setting key="SnapToGrid" value="0"/>
<vectornator:setting key="ShowGrid" value="1"/>
<vectornator:setting key="GridSpacing" value="36"/>
</metadata>
<defs/>
<g id="レイヤー 1" vectornator:layerName="レイヤー 1">
<path stroke="#000000" stroke-opacity="0" stroke-width="1" d="M1104.28+32.6448C1009.89+135.708+873.742+254.578+856.937+644.211C837.237+1100.97+482.122+1120.99+270.383+1168.56C85.1523+865.153+220.48+400.541+431.843+227.688C342.166+398.399+375.893+518.539+383.578+558.873C461.077+278.223+742.418+175.479+1104.28+32.6448Z" fill="#0036b7" stroke-linecap="butt" opacity="1" stroke-linejoin="round"/>
</g>
<g id="レイヤー 2" vectornator:layerName="レイヤー 2">
<path stroke="#000000" stroke-opacity="0" stroke-width="1" d="M700.232+472.379C651.219+534.733+579.171+607.528+587.352+832.338C596.943+1095.88+395.806+1118.81+277.499+1152.99C158.292+984.306+214.132+712.532+326.52+606.248C283.27+707.389+307.93+775.457+314.14+798.426C345.454+634.397+500.849+566.219+700.232+472.379Z" fill="#007dff" stroke-linecap="butt" opacity="1" stroke-linejoin="round"/>
</g>
</svg>
